<svg version="1" xmlns="http://www.w3.org/2000/svg" width="682.667" height="682.667" viewBox="0 0 512.000000 512.000000"><path d="M221.5 134c-.4.6-2.1 1.1-3.9 1-7.5-.4-13.7 0-13.1 1 .3.5-.3 1-1.4 1-3.1 0-7.2 2.2-6.7 3.6.3.7 0 1.4-.6 1.6-.6.2-1 1.6-1 3.1s-.4 2.5-.7 2.3c-.4-.3-.8.4-.8 1.5-.1 1.1.3 1.7.9 1.3.6-.4.6.1-.1 1.4-1.3 2.5-1.4 3.5-.3 2.8.5-.3.9.1.9.9s-.4 1.2-.9.9c-.4-.3-.8-.1-.8.5 0 .5.5 1.3 1 1.6.6.3 1 1.2 1 1.8 0 .7-.4.6-1-.3-.9-1.3-1-1.3-1 0 0 .9.6 2.2 1.3 2.9.6.8.7 1.1.1.8-.6-.3-1.1 0-1.1.8s.4 1.2.9.9c.9-.6 1.1.8.2 3-.3.9-1 1.4-1.4 1.1-.4-.2-2.4 1.3-4.4 3.5-2 2.2-4.1 4-4.6 4-.6 0-1 .9-1 2.1 0 1.1-.4 1.8-.9 1.4-.5-.3-1.8.8-2.7 2.5-1 1.6-2.2 3-2.7 3-.4 0-.6.4-.3.8.3.5-.3 1.8-1.2 2.8-1 1-2.5 3.4-3.2 5.1-.8 1.8-1.8 3.3-2.2 3.3-.5 0-.8.7-.8 1.5s-.4 1.5-.8 1.5-.9 1.2-1 2.7c-.1 1.5-.9 3.7-1.7 4.9-1.3 2-2.5 6-2.7 9.1-.1.7-.5 1-.9.7-.4-.2-1.5.3-2.3 1.2-.9.8-1.6 1.2-1.6.8 0-.5-.5-.3-1.2.4s-2 1.2-2.9 1.2c-.9 0-1.9.7-2.3 1.5-.3.8-1.1 1.5-1.8 1.5-1.4 0-5.2 3.9-8 8.2-1.5 2.3-2.1 6.8-1.9 14.9.1 2.2 1 4.4 2.4 5.9 1.2 1.4 2.1 2.8 1.9 3.3-.1.5.2.6.7.3.5-.4 1.1-.1 1.3.4.2.6 1.3 1.2 2.5 1.3 1.2 0 2.1.6 2 1.1-.1.5.9 1 2.3 1 2.5.1 4 1.2 4 3.1 0 .5-.5.3-1-.5-.6-.9-1-1-1-.3s.8 1.7 1.8 2.2c1.6 1 1.5 1-.3 1.1-1.2.1-1.5.4-.7.7 1 .4 1 .8 0 2.1-1 1.2-1 1.4 0 .8.9-.5 1.2.6 1.3 4.6.1 6.1.6 12.8 1.3 17.8.3 1.9.6 5.2.7 7.2.2 2.1.6 3.8.9 3.8.4 0 .6 1.6.5 3.5-.1 1.9.3 3.5.7 3.5.5 0 .6.4.3 1-.3.5-.2 1 .3 1 .6 0 1 1 1 2.2.1 4.2 1.4 8.8 2.5 8.8.6 0 .8.3.4.6-.3.3 0 2.5.8 4.9.7 2.4 1 4.6.7 4.9-.3.4 0 .6.6.6.7 0 1.2 1 1.2 2.3 0 1.3.4 2.7.9 3.3.5.5 1.1 1.8 1.3 2.9.1 1.1 1 2.8 1.8 3.8s1.5 2.1 1.5 2.5c.2 1.9 1.7 5.2 2.5 5.2.5 0 .7.9.5 2-.2 1.1 0 1.8.4 1.6.4-.3 1.4 1 2.1 2.9.7 1.9 1.7 3.2 2.2 2.9.4-.3.8.1.8 1 0 .8 1.6 3.5 3.5 6.1 2 2.5 3.3 5 3 5.6-.4.5-.2.8.3.7.5-.2 2.5 1.4 4.5 3.4 2 2.1 3.3 3.8 3 3.8-.3 0 .5.9 1.8 2.1 1.3 1.1 1.8 1.8 1.2 1.4-.7-.3-1.3-.1-1.3.5 0 .7-.6 1-1.4.7-.8-.3-1.7.1-2 1-.4.9-.9 1.3-1.3 1-.3-.4-1.4.5-2.5 1.8-1.1 1.4-2.6 2.5-3.4 2.5-.8 0-1.2.4-.9 1 .3.5.1 1-.5 1s-.8.4-.5 1c.3.5.1 1-.5 1s-.8.4-.5 1c.3.5.2 1-.4 1-.5 0-.8.9-.6 1.9.4 2-1.2 3.1-5.5 3.8-1.4.2-2.9.8-3.5 1.4-.5.5-1.6.9-2.5.9-.8 0-4.5 1.6-8.2 3.5-3.8 1.9-6.8 3.2-6.8 3 0-.3-.9.4-2 1.5s-2.7 2-3.6 2c-.8 0-1.2.4-.9 1 1.2 1.9-1.6 1-5.6-2-2.3-1.6-4.5-2.7-5-2.4-.5.3-.9 0-.9-.5 0-.6-.7-1.1-1.5-1.1s-1.5-.4-1.5-.9c0-.6-.9-.8-2-.6-1.1.2-2-.1-2-.6 0-.6-.5-.7-1-.4-.6.4-1.6.2-2.3-.3-1.5-1.2-5.8-2.1-11.7-2.3-2.5-.2-5.1-.7-5.9-1.3-1.1-.8-1.3-.8-.8 0 .4.7-.9 1.1-3.6 1.3-2.3.1-5.8.4-7.7.7-1.9.3-4.7.7-6.2.7-1.6.1-2.8.6-2.8 1 0 .5-.4.5-1 .2-.5-.3-1-.2-1 .3s-1.8 1.2-4 1.6c-2.2.3-5.5 1.5-7.4 2.5-1.9 1.1-3.7 1.7-4 1.4-.3-.4-.6-.1-.6.5 0 .7-.7 1.2-1.5 1.2s-1.5.4-1.5.9c0 .8-3.7 2.4-5.2 2.2-.5-.1-.8.3-.8.9 0 .5-.6 1-1.3 1-.7 0-1.8.9-2.5 2s-1.9 2-2.8 2c-.8 0-1.3.4-1 .9.3.4-.6 1.3-2 2-1.4.6-2.3 1.5-1.9 2 .3.5-.4 1.3-1.6 1.6-1.1.4-1.8.9-1.5 1.2.2.3-.4 1.4-1.4 2.6-1.1 1.1-1.7 2.5-1.3 3 .3.6.2.8-.3.5-.5-.3-1.5 0-2.2.8-.7.8-1 1.4-.7 1.4.3 0-.6 1.7-1.9 3.8-1.4 2-2.8 4.9-3.1 6.4-.4 1.7-1.2 2.5-1.9 2.1-.6-.3-.8-.3-.4.2.4.4.1 2.3-.7 4.2-.8 1.9-1.4 4-1.2 4.6.1.7-.3 1.1-.9 1-.6-.1-1 .8-.9 2 .1 1.2-.2 2.8-.8 3.4-.6.9-.5 1.3.4 1.3s1 .3.4.8c-1.5 1.1-1.7 2.7-1.6 15 .1 6.3.6 12.3 1.2 13.4.8 1.5.8 1.9 0 1.4-.7-.5-.9-.1-.5.8.3.9 1 1.6 1.6 1.6.5 0 .6.5.3 1-.4.6-.1 1.7.5 2.5 1.1 1.3 32.1 1.5 239.6 1.5H512l-.2-46.8c-.2-25.7-.5-46.5-.8-46.2-.3.3-1.6-.5-3-1.7-1.3-1.3-3-2.3-3.7-2.3-.7 0-1.3-.5-1.3-1.1 0-.6-.7-.9-1.5-.5-1 .3-1.5-.1-1.5-1.2 0-1.3-.2-1.4-.9-.4-.7 1.1-.9 1.1-1.4-.2-.4-.9-1-1.5-1.4-1.4-.4.1-2.5-.6-4.7-1.5-2.1-.9-4.2-1.7-4.6-1.7-.4 0-2.1-.7-3.8-1.6-1.8-.8-3.6-1.3-4.2-.9-.5.3-1 .1-1-.6 0-.8-.5-.7-1.7.2-1.1 1-1.4 1-.9.1.5-.8 0-1.2-1.6-1.3-6.3-.3-12.3-.7-12.3-.9 0-.8-8.2-.5-9.2.3-.8.6-1.3.6-1.3 0 0-.5-.7-1-1.5-1s-1.5.5-1.5 1-.6.4-1.4-.2c-1.1-.9-1.6-.9-2.1-.1-.4.7-1.6 1-2.6.7-1-.3-2.1-.1-2.4.3-.3.5-1.4.7-2.5.5-1.1-.2-2 .1-2 .7s-.3.8-.7.5c-.3-.4-1.7 0-3.1.9-1.7 1.1-2.2 1.2-1.7.3.6-1.1.5-1.2-.6-.2-.7.7-2 1.3-2.8 1.3-.8 0-2.3.8-3.4 1.8-1.5 1.2-1.8 1.3-1.2.2.7-1.2.5-1.2-1.1.1-1 .9-3.4 2.2-5.1 3-1.8.8-3.3 1.7-3.3 2.1 0 .5-.7.8-1.5.8s-2.3 1-3.5 2.2c-1.1 1.2-2 1.8-2 1.3 0-.4-.8.2-1.9 1.3-1 1.2-2.1 2.2-2.5 2.2-.8 0-5.6 5-5.6 5.9 0 .3-1.1 1.3-2.4 2.3-2.2 1.6-2.3 1.6-2.1-1.8 0-1.9-.3-3.4-.8-3.4s-.7-.9-.4-2c.3-1.1.1-1.7-.4-1.4-.5.3-1.2-.3-1.5-1.3-2.1-6.5-7.4-16.4-7.4-13.8 0 .5-.8-.1-1.7-1.2-1-1.1-3.3-2.6-5-3.4-1.8-.7-3.3-1.8-3.3-2.2 0-.5-.6-.7-1.2-.5-.7.3-2.4-.1-3.7-.8-1.4-.7-2.8-1.1-3.3-.8-.4.3-.8 0-.8-.6s-.4-.8-1-.5c-.5.3-1 .2-1-.2 0-.5-1-.9-2.2-1-1.3 0-4.3-.3-6.8-.6s-5-.6-5.7-.6c-.7-.1-1-.7-.7-1.5.3-.7-.2-2.1-1.1-3-.9-.9-1.3-1.6-.8-1.6 1.3-.1-6.8-7-8.2-7-.7 0-1.5-.4-1.7-.9-.1-.6-1.4-1.2-2.8-1.4-1.4-.2-3.3-.7-4.2-1.1-.9-.4-2.2-.5-2.8-.1-.6.4-.9.1-.8-.5.3-1.2-5-2.1-13-2.3-3-.1-3.1-.3-1.6-1.4 1-.7 1.5-1.3 1.1-1.3-.4 0 .6-1.4 2.3-3.1 1.6-1.7 2.7-3.5 2.4-4-.3-.5.2-.9 1-.9 1 0 1.3-.6.9-1.7s-.3-1.4.5-.9c.8.4 1.2 0 1.2-1.2 0-1 .9-2.8 1.9-3.9 1.1-1.2 1.8-2.3 1.5-2.6-.3-.3-.1-1.3.4-2.4 1.7-3.2 4.5-10.4 4.7-11.8.1-.6.4-2.4.8-4 .4-1.7.8-4.9.9-7.2.1-2.3.5-4 1-3.7.7.4 1.4-19.1.8-22.1-.1-.5-.2-2.2-.2-3.7-.1-1.7-.5-2.5-1.2-2.1-.6.4-.4-.2.4-1.2.9-1.1 1-1.6.3-1.1-.7.4-1.3.2-1.3-.3 0-.6.5-1.1 1-1.1.6 0 1-.5 1-1.1 0-.5-.4-.8-.8-.5-.5.3-.9-.1-.9-.9s.5-1.2 1-.8c.5.3.5-.2 0-1.3-.6-1.1-1.1-8.2-1.1-15.9-.1-7.7-.4-16.5-.8-19.5-.3-3-.6-8-.7-11-.1-3-.6-6.1-1.1-6.9-.7-1.1-.6-1.2.5-.6 1.1.7 1.2.6.3-.6-.5-.8-1.2-3.2-1.3-5.4-.2-2.2-.8-4.6-1.4-5.4-1-1.2-.9-1.3.3-.6 1.2.6 1.3.5.3-.6-.7-.7-1.3-2.6-1.3-4.1 0-1.6-.6-2.8-1.2-2.8-1 0-.9-.3.1-.9.8-.5.9-1.1.3-1.5-.6-.3-.9-1.7-.8-3.1.2-1.3 0-2.2-.5-2-.8.5-2.1-2.6-1.8-4.1.2-1-.4-2.7-3.7-10.3-1.3-2.9-2.4-6-2.4-6.8 0-.8-.4-1.2-.9-.9-.8.5-2.6-4-2.3-5.6.1-.5-.3-.7-1-.5-.7.1-1.2-.3-1.3-.8 0-1.5-4.5-7.6-7.8-10.8-1.6-1.5-2.6-2.7-2.2-2.7.5 0-1.1-1.4-3.3-3-2.3-1.7-4.6-3-5-3-.5 0-1.8-.9-3-2.1-1.2-1.1-2.6-1.7-3.1-1.4-.5.3-1.2.1-1.6-.5-.3-.5-1.5-1-2.6-1s-1.7-.5-1.4-1c.5-.9-1.5-1.5-3.7-1.1-.5 0-.8-.2-.8-.7 0-.4-2.2-.7-4.9-.7s-4.7-.3-4.5-.6c.6-1-4.9-1.6-13.2-1.3l-7.6.2.4-6.9c.3-4.6.1-6.9-.6-7-.6 0-3.8-.2-7.1-.2-3.3-.1-6.3-.7-6.7-1.2-.5-.6-.8-.4-.8.5 0 1.3-.1 1.3-1 0s-1-1.3-1 0c0 1.2-.2 1.2-.9.1-.6-1-1-1-1.6-.1z"/></svg>